PathFileType	4	(X/Y/Z)	Patient4_TMGait_0pt6_02_left_08.trc.trc
DataRate	CameraRate	NumFrames	NumMarkers	Units	OrigDataRate	OrigDataStartFrame	OrigNumFrames
81.871345029240	81.871345029240	4	33	mm	81.871345029240	124	       141
Frame#	Time	Sacral			L.Shoulder			Chest			R.Shoulder			Neck			R.ASIS			L.ASIS			R.Thigh.Superior			R.Thigh.Lateral			R.Thigh.Inferior			R.Patella			L.Thigh.Superior			L.Thigh.Lateral			L.Thigh.Inferior			L.Patella			L.Shank.Superior			L.Shank.Lateral			L.Shank.Inferior			R.Shank.Superior			R.Shank.Lateral			R.Shank.Inferior			R.Heel			R.Midfoot.Superior			R.Midfoot.Lateral			R.Toe			L.Heel			L.Midfoot.Lateral			L.Midfoot.Superior			L.Toe			L.Elbow			L.Wrist			R.Elbow			R.Wrist			
		X1	Y1	Z1	X2	Y2	Z2	X3	Y3	Z3	X4	Y4	Z4	X5	Y5	Z5	X6	Y6	Z6	X7	Y7	Z7	X8	Y8	Z8	X9	Y9	Z9	X10	Y10	Z10	X11	Y11	Z11	X12	Y12	Z12	X13	Y13	Z13	X14	Y14	Z14	X15	Y15	Z15	X16	Y16	Z16	X17	Y17	Z17	X18	Y18	Z18	X19	Y19	Z19	X20	Y20	Z20	X21	Y21	Z21	X22	Y22	Z22	X23	Y23	Z23	X24	Y24	Z24	X25	Y25	Z25	X26	Y26	Z26	X27	Y27	Z27	X28	Y28	Z28	X29	Y29	Z29	X30	Y30	Z30	X31	Y31	Z31	X32	Y32	Z32	X33	Y33	Z33	

124	11.242357142857	761.190219256586	1007.581601533365	493.255405742672	921.517232207955	1440.337565631712	322.337425738730	1041.281001223015	1362.989559283084	466.479908278107	976.956238544891	1427.488615358993	651.064585490382	920.892231616782	1489.988580587062	480.314769233512	988.736396923402	935.056478922695	597.657882965387	965.447614609500	958.571278876946	323.630664421237	982.254759709143	722.400043985744	570.649800115790	872.584448035972	629.852092301933	625.416732153061	935.053858822056	563.893244908269	547.404575538092	912.227000650470	478.261725855548	548.480843563093	1034.290472088803	767.872204925537	356.831668222496	978.768241509967	635.348481010281	288.204380567722	1079.820114608107	576.765940418365	351.305543586562	1102.581775197153	510.421593700407	352.700366489566	1086.550413885242	437.853623795528	345.913619046439	1019.457934513546	306.141168676847	302.947438412836	1106.260055125345	209.825569412494	361.810456054387	870.309806408621	395.834633456467	550.916214309587	779.739781141162	303.809795353485	605.926916309613	808.524047707712	205.342058845596	540.108788575365	654.959352766002	51.744277104251	497.465189297938	828.583008096140	97.553776972956	538.529679049485	736.207013308897	38.574005795426	572.106956467042	944.446101974608	38.222680324579	567.013560137656	1020.063996727059	39.063995477509	410.859028194143	1090.408503178762	38.549929166558	327.464823068798	1167.602430324558	108.556527751455	345.646227303472	1297.718085369013	68.432416652862	314.259037140952	788.118032890251	1113.959022977057	214.787178546658	761.061537071924	854.845821579852	215.783549145140	1093.876608444070	1100.748858940169	752.051831514357	1323.756555463238	1159.550673720882	672.721429321281	
125	11.254571428571	761.569896276600	1006.356326470646	491.100114767226	921.566635048885	1439.019186444317	320.333783562015	1040.978544480972	1362.355676166734	465.164933489108	975.526761323386	1426.892297798330	649.466331164570	920.405632444513	1489.075521689441	478.283170265594	988.859162251284	933.913433439862	596.858916671737	966.727545794136	957.546191824687	322.865155436275	981.952805273768	721.042016389436	569.956863419481	871.406192565279	629.014481870879	624.170027501366	933.882607768158	562.563932460187	546.553791764012	910.282462605950	476.620513890760	547.331561793656	1035.517165085775	766.030420536043	357.244874596426	979.124412202699	634.102323351680	288.407290078541	1079.198476316401	575.123037516514	352.790975900970	1100.607907938618	507.904855080623	354.661263371013	1084.038072912676	435.137044099482	347.330925646936	1015.239935562493	304.494917208188	303.672135088268	1099.552108558537	206.751501307620	363.718243807011	867.190312660921	394.568504895442	549.872129237096	775.536763606194	303.914469582132	605.231428171703	802.906928594569	204.960157221688	539.606026431620	647.733769947457	52.468987477551	497.459220110657	821.481924843476	97.635497094002	538.479968711896	728.921562375879	38.934573831662	572.115062226248	937.154063146035	38.042237771711	567.052356358695	1009.346191083777	38.296323518203	411.880587507060	1080.039720917092	37.106625220199	328.685032807506	1159.060916038793	104.646593127254	348.332904337092	1288.590782140682	61.333282509396	317.013294870421	790.110378142393	1111.871384738688	212.338759625818	766.048399971442	852.262257037576	213.415436457177	1088.248308433468	1098.656698691555	752.498365712839	1318.820648082374	1155.530365229122	673.458252190260	
126	11.266785714286	761.933101847375	1005.291922320872	488.908363633581	921.756068059713	1437.789019849071	318.219250699187	1040.786909572373	1361.835581080056	463.789183581985	974.186973709023	1426.483818177611	647.770887602531	920.064515208544	1488.330176672167	476.116362855744	988.993283317815	932.876618272429	595.996597417254	967.941551955528	956.708701618903	322.100030522606	981.754736648542	719.847903367573	569.076482255247	870.409657027054	628.309134281657	622.815174689553	932.907406156647	561.367848308199	545.590705387985	908.598260272714	475.016161082199	546.138638433595	1036.777062360179	764.450811222824	357.611223224156	979.634746466185	633.210974586585	288.394124585652	1078.804956917698	573.851130347697	354.056532912024	1098.867186822368	505.837767391427	356.329137567201	1081.855937316423	432.926184151391	348.415441588034	1011.638355716487	303.299218323756	303.972480998794	1093.493407170528	204.279624928638	365.162293774484	864.240532516842	393.431895728932	548.804314020735	771.458781673095	304.204256747838	604.512292083716	797.406046695415	204.745034490150	539.127238840214	640.558978343770	53.461705398301	497.480842573405	814.487711998151	97.765342150391	538.458271373321	721.679303225349	39.403341836596	572.130358214644	929.899749286017	37.843546580498	567.084980845809	999.638080379687	37.814200312208	412.486064052582	1070.639795631881	36.167788272521	329.465738058592	1151.128321684350	101.630420290113	350.445956705179	1280.166561591101	55.710697978910	319.163726555677	792.753049813743	1109.627273192871	209.751791095869	771.975319348568	849.498458843218	210.809113819324	1081.974524875954	1096.523494096521	752.943842749511	1313.751632873669	1150.078821116359	674.516052477292	
127	11.279000000000	762.265832633672	1004.487883126246	486.705139171304	922.080790021743	1436.747049455126	316.033868085045	1040.711183988928	1361.481175260724	462.355676934686	973.003873950677	1426.323935217210	645.990980660134	919.877563683406	1487.819361430522	473.856767305224	989.102466326887	932.026098414213	595.020372825307	969.034812334250	956.138169980166	321.268396012670	981.619938185159	718.900182071489	567.994217290890	869.607852665970	627.797662253756	621.378544478578	932.162468924554	560.374436195816	544.543434848974	907.247473294060	473.491022953388	544.994340694754	1038.018698499423	763.290776597804	357.855811875233	980.344231752681	632.747017509760	288.158006519554	1078.674968632825	573.027761482570	355.032432211726	1097.424388626362	504.288290406898	357.638885253270	1080.026949475272	431.252550202616	349.169332928300	1008.626439489064	302.592303348119	303.891061794650	1088.045224310166	202.426212571061	366.169150436930	861.518440711593	392.487045437249	547.793437642380	767.527358536845	304.745392509879	603.808148316850	792.058541380767	204.754934192014	538.728305135839	633.456041509059	54.809864094128	497.552029196790	807.639702085048	97.962345839554	538.502244125286	714.494796120779	40.012093345427	572.167094962353	922.684819710108	37.629068641329	567.109683528031	990.916210192360	37.587939224444	412.760862829654	1062.165446360873	35.670101868044	329.878438026584	1143.751084906998	99.507061760708	351.973841629370	1272.400890660641	51.592737619969	320.684351225982	796.000696455929	1107.359834431865	207.076226326210	778.820033734796	846.704992440424	207.979947321927	1075.085931678226	1094.447987276171	753.323393447892	1308.529112795216	1143.168245226208	675.884856655899	
